<mxfile host="Electron" agent="Mozilla/5.0 (Macintosh; Intel Mac OS X 10_15_7) AppleWebKit/537.36 (KHTML, like Gecko) draw.io/24.7.8 Chrome/128.0.6613.36 Electron/32.0.1 Safari/537.36" version="24.7.8">
  <diagram name="Page-1" id="6ovXW260JZMV4VgRhOEn">
    <mxGraphModel dx="2074" dy="1214" grid="1" gridSize="10" guides="1" tooltips="1" connect="1" arrows="1" fold="1" page="1" pageScale="1" pageWidth="850" pageHeight="1100" math="0" shadow="0">
      <root>
        <mxCell id="0" />
        <mxCell id="1" parent="0" />
        <mxCell id="WoF18aefavJoUWqvMgJQ-42" value="" style="shape=waypoint;sketch=0;fillStyle=solid;size=6;pointerEvents=1;points=[];fillColor=none;resizable=0;rotatable=0;perimeter=centerPerimeter;snapToPoint=1;" parent="1" vertex="1">
          <mxGeometry x="270" y="238.5" width="20" height="20" as="geometry" />
        </mxCell>
        <mxCell id="WoF18aefavJoUWqvMgJQ-43" value="" style="endArrow=none;html=1;rounded=0;exitX=0.25;exitY=0.5;exitDx=0;exitDy=0;exitPerimeter=0;fillColor=#e51400;strokeColor=#FF0000;strokeWidth=3;" parent="1" source="G7UtKUlCrea1HoJt_iq_-33" target="WoF18aefavJoUWqvMgJQ-42" edge="1">
          <mxGeometry width="50" height="50" relative="1" as="geometry">
            <mxPoint x="540" y="513" as="sourcePoint" />
            <mxPoint x="590" y="463" as="targetPoint" />
          </mxGeometry>
        </mxCell>
        <mxCell id="WoF18aefavJoUWqvMgJQ-53" value="" style="shape=waypoint;sketch=0;fillStyle=solid;size=6;pointerEvents=1;points=[];fillColor=none;resizable=0;rotatable=0;perimeter=centerPerimeter;snapToPoint=1;" parent="1" vertex="1">
          <mxGeometry x="310" y="203" width="20" height="20" as="geometry" />
        </mxCell>
        <mxCell id="WoF18aefavJoUWqvMgJQ-57" value="" style="endArrow=none;html=1;rounded=0;exitX=-0.108;exitY=0.967;exitDx=0;exitDy=0;exitPerimeter=0;entryX=0.5;entryY=1;entryDx=0;entryDy=0;fillColor=#e51400;strokeColor=#FF0000;strokeWidth=3;" parent="1" source="WoF18aefavJoUWqvMgJQ-53" target="XM5FjCuDmPm9ycIdQVT2-14" edge="1">
          <mxGeometry width="50" height="50" relative="1" as="geometry">
            <mxPoint x="610" y="462" as="sourcePoint" />
            <mxPoint x="320" y="172" as="targetPoint" />
          </mxGeometry>
        </mxCell>
        <mxCell id="WoF18aefavJoUWqvMgJQ-58" value="" style="endArrow=none;html=1;rounded=0;exitX=0.892;exitY=0.525;exitDx=0;exitDy=0;exitPerimeter=0;entryX=0.142;entryY=0.592;entryDx=0;entryDy=0;entryPerimeter=0;fillColor=#e51400;strokeColor=#FF0000;strokeWidth=3;" parent="1" source="WoF18aefavJoUWqvMgJQ-42" target="WoF18aefavJoUWqvMgJQ-53" edge="1">
          <mxGeometry width="50" height="50" relative="1" as="geometry">
            <mxPoint x="610" y="462" as="sourcePoint" />
            <mxPoint x="660" y="412" as="targetPoint" />
          </mxGeometry>
        </mxCell>
        <mxCell id="WoF18aefavJoUWqvMgJQ-59" value="DC charge jack (F)" style="text;html=1;align=center;verticalAlign=middle;resizable=0;points=[];autosize=1;strokeColor=none;fillColor=none;" parent="1" vertex="1">
          <mxGeometry x="208" y="142" width="120" height="30" as="geometry" />
        </mxCell>
        <mxCell id="WoF18aefavJoUWqvMgJQ-61" value="" style="shape=waypoint;sketch=0;fillStyle=solid;size=6;pointerEvents=1;points=[];fillColor=none;resizable=0;rotatable=0;perimeter=centerPerimeter;snapToPoint=1;" parent="1" vertex="1">
          <mxGeometry x="350" y="202" width="20" height="20" as="geometry" />
        </mxCell>
        <mxCell id="WoF18aefavJoUWqvMgJQ-64" value="" style="endArrow=none;html=1;rounded=0;strokeWidth=3;exitX=0.25;exitY=0.5;exitDx=0;exitDy=0;exitPerimeter=0;" parent="1" source="G7UtKUlCrea1HoJt_iq_-34" target="WoF18aefavJoUWqvMgJQ-44" edge="1">
          <mxGeometry width="50" height="50" relative="1" as="geometry">
            <mxPoint x="140" y="291" as="sourcePoint" />
            <mxPoint x="280" y="292" as="targetPoint" />
            <Array as="points" />
          </mxGeometry>
        </mxCell>
        <mxCell id="WoF18aefavJoUWqvMgJQ-44" value="" style="shape=waypoint;sketch=0;fillStyle=solid;size=6;pointerEvents=1;points=[];fillColor=none;resizable=0;rotatable=0;perimeter=centerPerimeter;snapToPoint=1;" parent="1" vertex="1">
          <mxGeometry x="270" y="281" width="20" height="20" as="geometry" />
        </mxCell>
        <mxCell id="WoF18aefavJoUWqvMgJQ-67" value="" style="endArrow=none;html=1;rounded=0;strokeWidth=3;" parent="1" target="WoF18aefavJoUWqvMgJQ-61" edge="1">
          <mxGeometry width="50" height="50" relative="1" as="geometry">
            <mxPoint x="280" y="291" as="sourcePoint" />
            <mxPoint x="660" y="412" as="targetPoint" />
          </mxGeometry>
        </mxCell>
        <mxCell id="WoF18aefavJoUWqvMgJQ-68" value="" style="endArrow=none;html=1;rounded=0;exitX=0.683;exitY=0.558;exitDx=0;exitDy=0;exitPerimeter=0;entryX=0.5;entryY=0;entryDx=0;entryDy=0;strokeWidth=3;" parent="1" source="WoF18aefavJoUWqvMgJQ-61" target="XM5FjCuDmPm9ycIdQVT2-14" edge="1">
          <mxGeometry width="50" height="50" relative="1" as="geometry">
            <mxPoint x="610" y="462" as="sourcePoint" />
            <mxPoint x="333.5" y="158.5" as="targetPoint" />
            <Array as="points">
              <mxPoint x="360" y="159" />
            </Array>
          </mxGeometry>
        </mxCell>
        <mxCell id="WoF18aefavJoUWqvMgJQ-92" value="" style="shape=waypoint;sketch=0;fillStyle=solid;size=6;pointerEvents=1;points=[];fillColor=none;resizable=0;rotatable=0;perimeter=centerPerimeter;snapToPoint=1;" parent="1" vertex="1">
          <mxGeometry x="310" y="328" width="20" height="20" as="geometry" />
        </mxCell>
        <mxCell id="WoF18aefavJoUWqvMgJQ-94" value="" style="shape=waypoint;sketch=0;fillStyle=solid;size=6;pointerEvents=1;points=[];fillColor=none;resizable=0;rotatable=0;perimeter=centerPerimeter;snapToPoint=1;" parent="1" vertex="1">
          <mxGeometry x="350" y="327" width="20" height="20" as="geometry" />
        </mxCell>
        <mxCell id="WoF18aefavJoUWqvMgJQ-95" value="" style="endArrow=none;html=1;rounded=0;jumpStyle=arc;strokeWidth=3;fillColor=#e51400;strokeColor=#FF0000;entryX=0.433;entryY=0.717;entryDx=0;entryDy=0;entryPerimeter=0;exitX=0.392;exitY=1.025;exitDx=0;exitDy=0;exitPerimeter=0;" parent="1" source="WoF18aefavJoUWqvMgJQ-94" target="WoF18aefavJoUWqvMgJQ-42" edge="1">
          <mxGeometry width="50" height="50" relative="1" as="geometry">
            <mxPoint x="380" y="250" as="sourcePoint" />
            <mxPoint x="370" y="342" as="targetPoint" />
            <Array as="points">
              <mxPoint x="360" y="250" />
            </Array>
          </mxGeometry>
        </mxCell>
        <mxCell id="WoF18aefavJoUWqvMgJQ-96" value="" style="endArrow=none;html=1;rounded=0;exitX=0.808;exitY=0.45;exitDx=0;exitDy=0;exitPerimeter=0;strokeWidth=3;entryX=-0.15;entryY=0.3;entryDx=0;entryDy=0;entryPerimeter=0;jumpStyle=arc;" parent="1" source="WoF18aefavJoUWqvMgJQ-92" target="WoF18aefavJoUWqvMgJQ-44" edge="1">
          <mxGeometry width="50" height="50" relative="1" as="geometry">
            <mxPoint x="330" y="342" as="sourcePoint" />
            <mxPoint x="290" y="302" as="targetPoint" />
            <Array as="points">
              <mxPoint x="320" y="290" />
            </Array>
          </mxGeometry>
        </mxCell>
        <mxCell id="WoF18aefavJoUWqvMgJQ-97" value="12V Power Assembly" style="text;html=1;align=center;verticalAlign=middle;resizable=0;points=[];autosize=1;strokeColor=none;fillColor=none;fontStyle=1;fontSize=15;" parent="1" vertex="1">
          <mxGeometry x="37.86" y="30" width="170" height="30" as="geometry" />
        </mxCell>
        <mxCell id="G7UtKUlCrea1HoJt_iq_-2" value="" style="endArrow=none;html=1;rounded=0;exitX=0.2;exitY=1;exitDx=0;exitDy=0;exitPerimeter=0;entryX=0.65;entryY=0.3;entryDx=0;entryDy=0;strokeWidth=3;fillColor=#e51400;strokeColor=#FF0000;entryPerimeter=0;" parent="1" source="WoF18aefavJoUWqvMgJQ-94" target="_QanThGe_R4vtIQi0s6S-13" edge="1">
          <mxGeometry width="50" height="50" relative="1" as="geometry">
            <mxPoint x="820" y="650" as="sourcePoint" />
            <mxPoint x="355.7399999999998" y="382" as="targetPoint" />
            <Array as="points">
              <mxPoint x="360" y="460" />
            </Array>
          </mxGeometry>
        </mxCell>
        <mxCell id="G7UtKUlCrea1HoJt_iq_-3" value="" style="endArrow=none;html=1;rounded=0;exitX=0.9;exitY=0.4;exitDx=0;exitDy=0;exitPerimeter=0;strokeWidth=3;entryX=0.25;entryY=0.35;entryDx=0;entryDy=0;entryPerimeter=0;" parent="1" source="WoF18aefavJoUWqvMgJQ-92" target="_QanThGe_R4vtIQi0s6S-3" edge="1">
          <mxGeometry width="50" height="50" relative="1" as="geometry">
            <mxPoint x="820" y="650" as="sourcePoint" />
            <mxPoint x="140" y="590" as="targetPoint" />
            <Array as="points">
              <mxPoint x="321" y="360" />
            </Array>
          </mxGeometry>
        </mxCell>
        <mxCell id="G7UtKUlCrea1HoJt_iq_-4" value="" style="pointerEvents=1;verticalLabelPosition=bottom;shadow=0;dashed=0;align=center;html=1;verticalAlign=top;shape=mxgraph.electrical.electro-mechanical.dpdt3;elSwitchState=1;rotation=-90;" parent="1" vertex="1">
          <mxGeometry x="316" y="590" width="58" height="62" as="geometry" />
        </mxCell>
        <mxCell id="G7UtKUlCrea1HoJt_iq_-5" value="&lt;div&gt;internal battery&lt;/div&gt;bypass&amp;nbsp;&lt;span style=&quot;background-color: initial;&quot;&gt;switch&lt;/span&gt;" style="text;html=1;align=right;verticalAlign=middle;resizable=0;points=[];autosize=1;strokeColor=none;fillColor=none;" parent="1" vertex="1">
          <mxGeometry x="385" y="601" width="100" height="40" as="geometry" />
        </mxCell>
        <mxCell id="G7UtKUlCrea1HoJt_iq_-33" value="" style="shape=waypoint;sketch=0;size=6;pointerEvents=1;points=[];fillColor=none;resizable=0;rotatable=0;perimeter=centerPerimeter;snapToPoint=1;" parent="1" vertex="1">
          <mxGeometry x="196" y="238.5" width="20" height="20" as="geometry" />
        </mxCell>
        <mxCell id="G7UtKUlCrea1HoJt_iq_-35" value="" style="endArrow=none;html=1;rounded=0;strokeWidth=3;" parent="1" target="G7UtKUlCrea1HoJt_iq_-34" edge="1">
          <mxGeometry width="50" height="50" relative="1" as="geometry">
            <mxPoint x="206" y="291" as="sourcePoint" />
            <mxPoint x="346" y="291" as="targetPoint" />
            <Array as="points" />
          </mxGeometry>
        </mxCell>
        <mxCell id="G7UtKUlCrea1HoJt_iq_-34" value="" style="shape=waypoint;sketch=0;size=6;pointerEvents=1;points=[];fillColor=none;resizable=0;rotatable=0;perimeter=centerPerimeter;snapToPoint=1;" parent="1" vertex="1">
          <mxGeometry x="196" y="281" width="20" height="20" as="geometry" />
        </mxCell>
        <mxCell id="G7UtKUlCrea1HoJt_iq_-40" value="" style="shape=image;html=1;verticalAlign=top;verticalLabelPosition=bottom;labelBackgroundColor=#ffffff;imageAspect=0;aspect=fixed;image=https://cdn1.iconfinder.com/data/icons/bootstrap-vol-3/16/input-cursor-128.png;rotation=-180;" parent="1" vertex="1">
          <mxGeometry x="132.5" y="254" width="27" height="27" as="geometry" />
        </mxCell>
        <mxCell id="G7UtKUlCrea1HoJt_iq_-41" value="" style="endArrow=none;html=1;rounded=0;fillColor=#e51400;strokeColor=#FF0000;strokeWidth=3;" parent="1" target="G7UtKUlCrea1HoJt_iq_-33" edge="1">
          <mxGeometry width="50" height="50" relative="1" as="geometry">
            <mxPoint x="146" y="249" as="sourcePoint" />
            <mxPoint x="174" y="227" as="targetPoint" />
          </mxGeometry>
        </mxCell>
        <mxCell id="G7UtKUlCrea1HoJt_iq_-44" value="&amp;nbsp;+12V&amp;nbsp;" style="edgeLabel;html=1;align=center;verticalAlign=middle;resizable=0;points=[];" parent="G7UtKUlCrea1HoJt_iq_-41" connectable="0" vertex="1">
          <mxGeometry x="-0.0662" y="2" relative="1" as="geometry">
            <mxPoint as="offset" />
          </mxGeometry>
        </mxCell>
        <mxCell id="G7UtKUlCrea1HoJt_iq_-45" value="" style="endArrow=none;html=1;rounded=0;strokeWidth=3;entryX=0.85;entryY=0.9;entryDx=0;entryDy=0;entryPerimeter=0;" parent="1" target="G7UtKUlCrea1HoJt_iq_-34" edge="1">
          <mxGeometry width="50" height="50" relative="1" as="geometry">
            <mxPoint x="146" y="291" as="sourcePoint" />
            <mxPoint x="236" y="328" as="targetPoint" />
            <Array as="points" />
          </mxGeometry>
        </mxCell>
        <mxCell id="G7UtKUlCrea1HoJt_iq_-46" value="&amp;nbsp;-12V&amp;nbsp;" style="edgeLabel;html=1;align=center;verticalAlign=middle;resizable=0;points=[];" parent="G7UtKUlCrea1HoJt_iq_-45" connectable="0" vertex="1">
          <mxGeometry x="-0.2333" y="1" relative="1" as="geometry">
            <mxPoint as="offset" />
          </mxGeometry>
        </mxCell>
        <mxCell id="G7UtKUlCrea1HoJt_iq_-47" value="DC battery&lt;div&gt;power / charge&lt;/div&gt;&lt;div&gt;plug (M)&lt;/div&gt;" style="text;html=1;align=left;verticalAlign=middle;resizable=0;points=[];autosize=1;strokeColor=none;fillColor=none;" parent="1" vertex="1">
          <mxGeometry x="146" y="300" width="100" height="60" as="geometry" />
        </mxCell>
        <mxCell id="XM5FjCuDmPm9ycIdQVT2-14" value="" style="shape=image;html=1;verticalAlign=top;verticalLabelPosition=bottom;labelBackgroundColor=#ffffff;imageAspect=0;aspect=fixed;image=https://cdn1.iconfinder.com/data/icons/bootstrap-vol-3/16/input-cursor-128.png;rotation=90;" parent="1" vertex="1">
          <mxGeometry x="328" y="145" width="27" height="27" as="geometry" />
        </mxCell>
        <mxCell id="XM5FjCuDmPm9ycIdQVT2-28" value="" style="group" parent="1" vertex="1" connectable="0">
          <mxGeometry x="5" y="207.5" width="98" height="199.5" as="geometry" />
        </mxCell>
        <mxCell id="XM5FjCuDmPm9ycIdQVT2-26" value="DC battery&lt;div&gt;power / charge&lt;/div&gt;&lt;div&gt;jack (F)&lt;/div&gt;" style="text;html=1;align=right;verticalAlign=middle;resizable=0;points=[];autosize=1;strokeColor=none;fillColor=none;rotation=-90;" parent="XM5FjCuDmPm9ycIdQVT2-28" vertex="1">
          <mxGeometry x="39" y="119.5" width="100" height="60" as="geometry" />
        </mxCell>
        <mxCell id="XM5FjCuDmPm9ycIdQVT2-27" value="" style="group" parent="XM5FjCuDmPm9ycIdQVT2-28" vertex="1" connectable="0">
          <mxGeometry x="26" width="98" height="92.5" as="geometry" />
        </mxCell>
        <mxCell id="XM5FjCuDmPm9ycIdQVT2-25" value="" style="rounded=0;whiteSpace=wrap;html=1;fillColor=#0A0A0A;" parent="XM5FjCuDmPm9ycIdQVT2-27" vertex="1">
          <mxGeometry x="5" y="30" width="80" height="62.5" as="geometry" />
        </mxCell>
        <mxCell id="WoF18aefavJoUWqvMgJQ-41" value="12V Battery" style="text;html=1;align=center;verticalAlign=middle;resizable=0;points=[];autosize=1;strokeColor=none;fillColor=none;" parent="XM5FjCuDmPm9ycIdQVT2-27" vertex="1">
          <mxGeometry width="90" height="30" as="geometry" />
        </mxCell>
        <mxCell id="XM5FjCuDmPm9ycIdQVT2-22" value="" style="shape=image;html=1;verticalAlign=top;verticalLabelPosition=bottom;labelBackgroundColor=#ffffff;imageAspect=0;aspect=fixed;image=https://cdn1.iconfinder.com/data/icons/bootstrap-vol-3/16/input-cursor-128.png;rotation=0;imageBackground=default;" parent="XM5FjCuDmPm9ycIdQVT2-27" vertex="1">
          <mxGeometry x="71" y="46.5" width="27" height="27" as="geometry" />
        </mxCell>
        <mxCell id="XM5FjCuDmPm9ycIdQVT2-54" value="" style="group" parent="1" vertex="1" connectable="0">
          <mxGeometry x="328" y="29.998874503045716" width="157" height="93.44112549695429" as="geometry" />
        </mxCell>
        <mxCell id="XM5FjCuDmPm9ycIdQVT2-15" value="" style="shape=image;html=1;verticalAlign=top;verticalLabelPosition=bottom;labelBackgroundColor=#ffffff;imageAspect=0;aspect=fixed;image=https://cdn1.iconfinder.com/data/icons/bootstrap-vol-3/16/input-cursor-128.png;rotation=90;" parent="XM5FjCuDmPm9ycIdQVT2-54" vertex="1">
          <mxGeometry y="64.94112549695429" width="27" height="27" as="geometry" />
        </mxCell>
        <mxCell id="XM5FjCuDmPm9ycIdQVT2-17" value="" style="shape=image;html=1;verticalAlign=top;verticalLabelPosition=bottom;labelBackgroundColor=#ffffff;imageAspect=0;aspect=fixed;image=https://cdn0.iconfinder.com/data/icons/phosphor-fill-vol-4/256/plug-fill-128.png;rotation=45;" parent="XM5FjCuDmPm9ycIdQVT2-54" vertex="1">
          <mxGeometry x="37.860000000000014" y="9.941125496954285" width="48" height="48" as="geometry" />
        </mxCell>
        <mxCell id="XM5FjCuDmPm9ycIdQVT2-18" value="" style="endArrow=none;html=1;rounded=0;exitX=0;exitY=0.5;exitDx=0;exitDy=0;entryX=0;entryY=1;entryDx=0;entryDy=0;strokeWidth=7;" parent="XM5FjCuDmPm9ycIdQVT2-54" source="XM5FjCuDmPm9ycIdQVT2-15" target="XM5FjCuDmPm9ycIdQVT2-17" edge="1">
          <mxGeometry width="50" height="50" relative="1" as="geometry">
            <mxPoint x="492" y="389.94112549695427" as="sourcePoint" />
            <mxPoint x="542" y="339.94112549695427" as="targetPoint" />
            <Array as="points">
              <mxPoint x="13" y="33.941125496954285" />
            </Array>
          </mxGeometry>
        </mxCell>
        <mxCell id="XM5FjCuDmPm9ycIdQVT2-19" value="to DC charger (M)" style="text;html=1;align=left;verticalAlign=middle;resizable=0;points=[];autosize=1;strokeColor=none;fillColor=none;" parent="XM5FjCuDmPm9ycIdQVT2-54" vertex="1">
          <mxGeometry x="37" y="63.441125496954285" width="120" height="30" as="geometry" />
        </mxCell>
        <mxCell id="XM5FjCuDmPm9ycIdQVT2-55" value="BCC1" style="text;html=1;align=center;verticalAlign=middle;resizable=0;points=[];autosize=1;strokeColor=none;fillColor=none;fontSize=17;" parent="1" vertex="1">
          <mxGeometry x="366" y="258.5" width="70" height="30" as="geometry" />
        </mxCell>
        <mxCell id="XM5FjCuDmPm9ycIdQVT2-58" value="IN&lt;br&gt;connectors" style="text;html=1;align=center;verticalAlign=middle;resizable=0;points=[];autosize=1;strokeColor=none;fillColor=none;rotation=0;" parent="1" vertex="1">
          <mxGeometry x="355" y="322" width="80" height="40" as="geometry" />
        </mxCell>
        <mxCell id="XM5FjCuDmPm9ycIdQVT2-59" value="IN&lt;br&gt;connectors" style="text;html=1;align=center;verticalAlign=middle;resizable=0;points=[];autosize=1;strokeColor=none;fillColor=none;rotation=0;" parent="1" vertex="1">
          <mxGeometry x="361" y="192" width="80" height="40" as="geometry" />
        </mxCell>
        <mxCell id="_QanThGe_R4vtIQi0s6S-1" value="" style="group" vertex="1" connectable="0" parent="1">
          <mxGeometry x="20" y="840" width="777" height="232" as="geometry" />
        </mxCell>
        <mxCell id="G7UtKUlCrea1HoJt_iq_-51" value="" style="shape=waypoint;sketch=0;fillStyle=solid;size=6;pointerEvents=1;points=[];fillColor=none;resizable=0;rotatable=0;perimeter=centerPerimeter;snapToPoint=1;rotation=-180;" parent="_QanThGe_R4vtIQi0s6S-1" vertex="1">
          <mxGeometry x="345" y="126" width="20" height="20" as="geometry" />
        </mxCell>
        <mxCell id="G7UtKUlCrea1HoJt_iq_-52" value="" style="endArrow=none;html=1;rounded=0;exitX=0.25;exitY=0.5;exitDx=0;exitDy=0;exitPerimeter=0;fillColor=#e51400;strokeColor=#0D0000;strokeWidth=3;" parent="_QanThGe_R4vtIQi0s6S-1" source="G7UtKUlCrea1HoJt_iq_-73" target="G7UtKUlCrea1HoJt_iq_-51" edge="1">
          <mxGeometry width="50" height="50" relative="1" as="geometry">
            <mxPoint x="95" y="-129" as="sourcePoint" />
            <mxPoint x="45" y="-79" as="targetPoint" />
          </mxGeometry>
        </mxCell>
        <mxCell id="G7UtKUlCrea1HoJt_iq_-53" value="" style="shape=waypoint;sketch=0;fillStyle=solid;size=6;pointerEvents=1;points=[];fillColor=none;resizable=0;rotatable=0;perimeter=centerPerimeter;snapToPoint=1;rotation=-180;" parent="_QanThGe_R4vtIQi0s6S-1" vertex="1">
          <mxGeometry x="305" y="161" width="20" height="20" as="geometry" />
        </mxCell>
        <mxCell id="G7UtKUlCrea1HoJt_iq_-54" value="&lt;div&gt;OUT&lt;/div&gt;connector" style="text;html=1;align=center;verticalAlign=middle;resizable=0;points=[];autosize=1;strokeColor=none;fillColor=none;rotation=0;" parent="_QanThGe_R4vtIQi0s6S-1" vertex="1">
          <mxGeometry x="190" y="151" width="80" height="40" as="geometry" />
        </mxCell>
        <mxCell id="G7UtKUlCrea1HoJt_iq_-56" value="" style="endArrow=none;html=1;rounded=0;exitX=-0.108;exitY=0.967;exitDx=0;exitDy=0;exitPerimeter=0;fillColor=#e51400;strokeColor=#0D0000;strokeWidth=3;" parent="_QanThGe_R4vtIQi0s6S-1" source="G7UtKUlCrea1HoJt_iq_-53" edge="1">
          <mxGeometry width="50" height="50" relative="1" as="geometry">
            <mxPoint x="25" y="-78" as="sourcePoint" />
            <mxPoint x="314" y="220" as="targetPoint" />
          </mxGeometry>
        </mxCell>
        <mxCell id="G7UtKUlCrea1HoJt_iq_-57" value="" style="endArrow=none;html=1;rounded=0;exitX=0.892;exitY=0.525;exitDx=0;exitDy=0;exitPerimeter=0;entryX=0.142;entryY=0.592;entryDx=0;entryDy=0;entryPerimeter=0;fillColor=#e51400;strokeColor=#0D0000;strokeWidth=3;" parent="_QanThGe_R4vtIQi0s6S-1" source="G7UtKUlCrea1HoJt_iq_-51" target="G7UtKUlCrea1HoJt_iq_-53" edge="1">
          <mxGeometry width="50" height="50" relative="1" as="geometry">
            <mxPoint x="25" y="-78" as="sourcePoint" />
            <mxPoint x="-25" y="-28" as="targetPoint" />
          </mxGeometry>
        </mxCell>
        <mxCell id="G7UtKUlCrea1HoJt_iq_-58" value="DC secondary&lt;br&gt;battery port (F)" style="text;html=1;align=center;verticalAlign=middle;resizable=0;points=[];autosize=1;strokeColor=none;fillColor=none;rotation=0;" parent="_QanThGe_R4vtIQi0s6S-1" vertex="1">
          <mxGeometry x="311" y="186" width="100" height="40" as="geometry" />
        </mxCell>
        <mxCell id="G7UtKUlCrea1HoJt_iq_-59" value="" style="shape=waypoint;sketch=0;fillStyle=solid;size=6;pointerEvents=1;points=[];fillColor=none;resizable=0;rotatable=0;perimeter=centerPerimeter;snapToPoint=1;rotation=-180;" parent="_QanThGe_R4vtIQi0s6S-1" vertex="1">
          <mxGeometry x="270" y="161" width="20" height="20" as="geometry" />
        </mxCell>
        <mxCell id="G7UtKUlCrea1HoJt_iq_-60" value="" style="endArrow=none;html=1;rounded=0;strokeWidth=3;exitX=0.25;exitY=0.5;exitDx=0;exitDy=0;exitPerimeter=0;fillColor=#e51400;strokeColor=#FF0000;" parent="_QanThGe_R4vtIQi0s6S-1" source="G7UtKUlCrea1HoJt_iq_-75" target="G7UtKUlCrea1HoJt_iq_-61" edge="1">
          <mxGeometry width="50" height="50" relative="1" as="geometry">
            <mxPoint x="495" y="93" as="sourcePoint" />
            <mxPoint x="355" y="92" as="targetPoint" />
            <Array as="points" />
          </mxGeometry>
        </mxCell>
        <mxCell id="G7UtKUlCrea1HoJt_iq_-61" value="" style="shape=waypoint;sketch=0;fillStyle=solid;size=6;pointerEvents=1;points=[];fillColor=none;resizable=0;rotatable=0;perimeter=centerPerimeter;snapToPoint=1;rotation=-180;" parent="_QanThGe_R4vtIQi0s6S-1" vertex="1">
          <mxGeometry x="345" y="83" width="20" height="20" as="geometry" />
        </mxCell>
        <mxCell id="G7UtKUlCrea1HoJt_iq_-62" value="" style="endArrow=none;html=1;rounded=0;strokeWidth=3;fillColor=#e51400;strokeColor=#B20000;" parent="_QanThGe_R4vtIQi0s6S-1" target="G7UtKUlCrea1HoJt_iq_-59" edge="1">
          <mxGeometry width="50" height="50" relative="1" as="geometry">
            <mxPoint x="355" y="93" as="sourcePoint" />
            <mxPoint x="-25" y="-28" as="targetPoint" />
          </mxGeometry>
        </mxCell>
        <mxCell id="G7UtKUlCrea1HoJt_iq_-63" value="" style="endArrow=none;html=1;rounded=0;exitX=0.683;exitY=0.558;exitDx=0;exitDy=0;exitPerimeter=0;strokeWidth=3;fillColor=#e51400;strokeColor=#B20000;" parent="_QanThGe_R4vtIQi0s6S-1" source="G7UtKUlCrea1HoJt_iq_-59" edge="1">
          <mxGeometry width="50" height="50" relative="1" as="geometry">
            <mxPoint x="25" y="-78" as="sourcePoint" />
            <mxPoint x="280" y="220" as="targetPoint" />
            <Array as="points">
              <mxPoint x="280" y="210" />
            </Array>
          </mxGeometry>
        </mxCell>
        <mxCell id="G7UtKUlCrea1HoJt_iq_-64" value="" style="shape=waypoint;sketch=0;fillStyle=solid;size=6;pointerEvents=1;points=[];fillColor=none;resizable=0;rotatable=0;perimeter=centerPerimeter;snapToPoint=1;rotation=-180;" parent="_QanThGe_R4vtIQi0s6S-1" vertex="1">
          <mxGeometry x="305" y="36" width="20" height="20" as="geometry" />
        </mxCell>
        <mxCell id="G7UtKUlCrea1HoJt_iq_-65" value="OUT&lt;br&gt;connectors" style="text;html=1;align=center;verticalAlign=middle;resizable=0;points=[];autosize=1;strokeColor=none;fillColor=none;rotation=0;" parent="_QanThGe_R4vtIQi0s6S-1" vertex="1">
          <mxGeometry x="315" y="27" width="80" height="40" as="geometry" />
        </mxCell>
        <mxCell id="G7UtKUlCrea1HoJt_iq_-66" value="" style="shape=waypoint;sketch=0;fillStyle=solid;size=6;pointerEvents=1;points=[];fillColor=none;resizable=0;rotatable=0;perimeter=centerPerimeter;snapToPoint=1;rotation=-180;" parent="_QanThGe_R4vtIQi0s6S-1" vertex="1">
          <mxGeometry x="265" y="37" width="20" height="20" as="geometry" />
        </mxCell>
        <mxCell id="G7UtKUlCrea1HoJt_iq_-67" value="" style="endArrow=none;html=1;rounded=0;jumpStyle=arc;strokeWidth=3;fillColor=#e51400;strokeColor=#0D0000;entryX=0.433;entryY=0.717;entryDx=0;entryDy=0;entryPerimeter=0;exitX=0.392;exitY=1.025;exitDx=0;exitDy=0;exitPerimeter=0;" parent="_QanThGe_R4vtIQi0s6S-1" source="G7UtKUlCrea1HoJt_iq_-66" target="G7UtKUlCrea1HoJt_iq_-51" edge="1">
          <mxGeometry width="50" height="50" relative="1" as="geometry">
            <mxPoint x="255" y="134" as="sourcePoint" />
            <mxPoint x="265" y="42" as="targetPoint" />
            <Array as="points">
              <mxPoint x="275" y="134" />
            </Array>
          </mxGeometry>
        </mxCell>
        <mxCell id="G7UtKUlCrea1HoJt_iq_-68" value="" style="endArrow=none;html=1;rounded=0;exitX=0.808;exitY=0.45;exitDx=0;exitDy=0;exitPerimeter=0;strokeWidth=3;entryX=-0.15;entryY=0.3;entryDx=0;entryDy=0;entryPerimeter=0;jumpStyle=arc;fillColor=#e51400;strokeColor=#FF0000;" parent="_QanThGe_R4vtIQi0s6S-1" source="G7UtKUlCrea1HoJt_iq_-64" target="G7UtKUlCrea1HoJt_iq_-61" edge="1">
          <mxGeometry width="50" height="50" relative="1" as="geometry">
            <mxPoint x="305" y="42" as="sourcePoint" />
            <mxPoint x="345" y="82" as="targetPoint" />
            <Array as="points">
              <mxPoint x="315" y="94" />
            </Array>
          </mxGeometry>
        </mxCell>
        <mxCell id="G7UtKUlCrea1HoJt_iq_-73" value="" style="shape=waypoint;sketch=0;size=6;pointerEvents=1;points=[];fillColor=none;resizable=0;rotatable=0;perimeter=centerPerimeter;snapToPoint=1;rotation=-180;" parent="_QanThGe_R4vtIQi0s6S-1" vertex="1">
          <mxGeometry x="445" y="126" width="20" height="20" as="geometry" />
        </mxCell>
        <mxCell id="G7UtKUlCrea1HoJt_iq_-74" value="" style="endArrow=none;html=1;rounded=0;strokeWidth=3;" parent="_QanThGe_R4vtIQi0s6S-1" target="G7UtKUlCrea1HoJt_iq_-75" edge="1">
          <mxGeometry width="50" height="50" relative="1" as="geometry">
            <mxPoint x="455" y="93" as="sourcePoint" />
            <mxPoint x="315" y="93" as="targetPoint" />
            <Array as="points" />
          </mxGeometry>
        </mxCell>
        <mxCell id="G7UtKUlCrea1HoJt_iq_-75" value="" style="shape=waypoint;sketch=0;size=6;pointerEvents=1;points=[];fillColor=none;resizable=0;rotatable=0;perimeter=centerPerimeter;snapToPoint=1;rotation=-180;" parent="_QanThGe_R4vtIQi0s6S-1" vertex="1">
          <mxGeometry x="445" y="83" width="20" height="20" as="geometry" />
        </mxCell>
        <mxCell id="G7UtKUlCrea1HoJt_iq_-76" value="" style="shape=image;html=1;verticalAlign=top;verticalLabelPosition=bottom;labelBackgroundColor=#ffffff;imageAspect=0;aspect=fixed;image=https://cdn1.iconfinder.com/data/icons/bootstrap-vol-3/16/input-cursor-128.png;rotation=-360;" parent="_QanThGe_R4vtIQi0s6S-1" vertex="1">
          <mxGeometry x="502" y="103" width="27" height="27" as="geometry" />
        </mxCell>
        <mxCell id="G7UtKUlCrea1HoJt_iq_-77" value="" style="endArrow=none;html=1;rounded=0;fillColor=#e51400;strokeColor=#0D0000;strokeWidth=3;" parent="_QanThGe_R4vtIQi0s6S-1" target="G7UtKUlCrea1HoJt_iq_-73" edge="1">
          <mxGeometry width="50" height="50" relative="1" as="geometry">
            <mxPoint x="515" y="135" as="sourcePoint" />
            <mxPoint x="487" y="157" as="targetPoint" />
          </mxGeometry>
        </mxCell>
        <mxCell id="G7UtKUlCrea1HoJt_iq_-86" value="&amp;nbsp;-12V&amp;nbsp;" style="edgeLabel;html=1;align=center;verticalAlign=middle;resizable=0;points=[];" parent="G7UtKUlCrea1HoJt_iq_-77" connectable="0" vertex="1">
          <mxGeometry x="0.1663" y="-1" relative="1" as="geometry">
            <mxPoint as="offset" />
          </mxGeometry>
        </mxCell>
        <mxCell id="G7UtKUlCrea1HoJt_iq_-79" value="" style="endArrow=none;html=1;rounded=0;strokeWidth=3;entryX=0.85;entryY=0.9;entryDx=0;entryDy=0;entryPerimeter=0;fillColor=#e51400;strokeColor=#FF0000;" parent="_QanThGe_R4vtIQi0s6S-1" target="G7UtKUlCrea1HoJt_iq_-75" edge="1">
          <mxGeometry width="50" height="50" relative="1" as="geometry">
            <mxPoint x="515" y="93" as="sourcePoint" />
            <mxPoint x="425" y="56" as="targetPoint" />
            <Array as="points" />
          </mxGeometry>
        </mxCell>
        <mxCell id="G7UtKUlCrea1HoJt_iq_-85" value="&amp;nbsp;+12V&amp;nbsp;" style="edgeLabel;html=1;align=center;verticalAlign=middle;resizable=0;points=[];" parent="G7UtKUlCrea1HoJt_iq_-79" connectable="0" vertex="1">
          <mxGeometry x="0.2" relative="1" as="geometry">
            <mxPoint as="offset" />
          </mxGeometry>
        </mxCell>
        <mxCell id="G7UtKUlCrea1HoJt_iq_-88" value="DC power&lt;div&gt;output plug (M)&lt;/div&gt;" style="text;html=1;align=right;verticalAlign=middle;resizable=0;points=[];autosize=1;strokeColor=none;fillColor=none;" parent="_QanThGe_R4vtIQi0s6S-1" vertex="1">
          <mxGeometry x="417.5" y="142" width="100" height="40" as="geometry" />
        </mxCell>
        <mxCell id="XM5FjCuDmPm9ycIdQVT2-2" value="" style="endArrow=none;html=1;rounded=0;strokeWidth=7;exitX=1;exitY=0.5;exitDx=0;exitDy=0;entryX=0;entryY=0.5;entryDx=0;entryDy=0;" parent="_QanThGe_R4vtIQi0s6S-1" source="XM5FjCuDmPm9ycIdQVT2-3" target="XM5FjCuDmPm9ycIdQVT2-6" edge="1">
          <mxGeometry width="50" height="50" relative="1" as="geometry">
            <mxPoint x="580" y="116" as="sourcePoint" />
            <mxPoint x="660" y="76" as="targetPoint" />
            <Array as="points">
              <mxPoint x="610" y="90" />
            </Array>
          </mxGeometry>
        </mxCell>
        <mxCell id="XM5FjCuDmPm9ycIdQVT2-3" value="" style="shape=image;html=1;verticalAlign=top;verticalLabelPosition=bottom;labelBackgroundColor=#ffffff;imageAspect=0;aspect=fixed;image=https://cdn1.iconfinder.com/data/icons/bootstrap-vol-3/16/input-cursor-128.png;rotation=-360;" parent="_QanThGe_R4vtIQi0s6S-1" vertex="1">
          <mxGeometry x="533" y="103" width="27" height="27" as="geometry" />
        </mxCell>
        <mxCell id="XM5FjCuDmPm9ycIdQVT2-4" value="" style="endArrow=none;html=1;rounded=0;strokeWidth=7;exitX=1;exitY=0.5;exitDx=0;exitDy=0;entryX=0;entryY=0.5;entryDx=0;entryDy=0;" parent="_QanThGe_R4vtIQi0s6S-1" source="XM5FjCuDmPm9ycIdQVT2-3" target="XM5FjCuDmPm9ycIdQVT2-8" edge="1">
          <mxGeometry width="50" height="50" relative="1" as="geometry">
            <mxPoint x="577" y="127" as="sourcePoint" />
            <mxPoint x="660" y="140" as="targetPoint" />
          </mxGeometry>
        </mxCell>
        <mxCell id="XM5FjCuDmPm9ycIdQVT2-5" value="Y cable&lt;div&gt;F end&lt;/div&gt;" style="text;html=1;align=center;verticalAlign=middle;resizable=0;points=[];autosize=1;strokeColor=none;fillColor=none;" parent="_QanThGe_R4vtIQi0s6S-1" vertex="1">
          <mxGeometry x="523.5" y="57" width="60" height="40" as="geometry" />
        </mxCell>
        <mxCell id="XM5FjCuDmPm9ycIdQVT2-6" value="" style="shape=image;html=1;verticalAlign=top;verticalLabelPosition=bottom;labelBackgroundColor=#ffffff;imageAspect=0;aspect=fixed;image=https://cdn1.iconfinder.com/data/icons/bootstrap-vol-3/16/input-cursor-128.png;rotation=-360;" parent="_QanThGe_R4vtIQi0s6S-1" vertex="1">
          <mxGeometry x="660" y="66" width="27" height="27" as="geometry" />
        </mxCell>
        <mxCell id="XM5FjCuDmPm9ycIdQVT2-8" value="" style="shape=image;html=1;verticalAlign=top;verticalLabelPosition=bottom;labelBackgroundColor=#ffffff;imageAspect=0;aspect=fixed;image=https://cdn1.iconfinder.com/data/icons/bootstrap-vol-3/16/input-cursor-128.png;rotation=-360;" parent="_QanThGe_R4vtIQi0s6S-1" vertex="1">
          <mxGeometry x="660" y="126" width="27" height="27" as="geometry" />
        </mxCell>
        <mxCell id="XM5FjCuDmPm9ycIdQVT2-10" value="Y cable&lt;div&gt;M end&lt;/div&gt;" style="text;html=1;align=center;verticalAlign=middle;resizable=0;points=[];autosize=1;strokeColor=none;fillColor=none;" parent="_QanThGe_R4vtIQi0s6S-1" vertex="1">
          <mxGeometry x="643.5" y="26" width="60" height="40" as="geometry" />
        </mxCell>
        <mxCell id="XM5FjCuDmPm9ycIdQVT2-11" value="Y cable&lt;div&gt;M end&lt;/div&gt;" style="text;html=1;align=center;verticalAlign=middle;resizable=0;points=[];autosize=1;strokeColor=none;fillColor=none;" parent="_QanThGe_R4vtIQi0s6S-1" vertex="1">
          <mxGeometry x="643.5" y="161" width="60" height="40" as="geometry" />
        </mxCell>
        <mxCell id="XM5FjCuDmPm9ycIdQVT2-12" value="to amp" style="text;html=1;align=center;verticalAlign=middle;resizable=0;points=[];autosize=1;strokeColor=none;fillColor=none;" parent="_QanThGe_R4vtIQi0s6S-1" vertex="1">
          <mxGeometry x="687" y="124.5" width="60" height="30" as="geometry" />
        </mxCell>
        <mxCell id="XM5FjCuDmPm9ycIdQVT2-13" value="to keep-alive" style="text;html=1;align=center;verticalAlign=middle;resizable=0;points=[];autosize=1;strokeColor=none;fillColor=none;" parent="_QanThGe_R4vtIQi0s6S-1" vertex="1">
          <mxGeometry x="687" y="64.5" width="90" height="30" as="geometry" />
        </mxCell>
        <mxCell id="XM5FjCuDmPm9ycIdQVT2-41" value="" style="shape=image;html=1;verticalAlign=top;verticalLabelPosition=bottom;labelBackgroundColor=#ffffff;imageAspect=0;aspect=fixed;image=https://cdn1.iconfinder.com/data/icons/bootstrap-vol-3/16/input-cursor-128.png;rotation=-90;" parent="_QanThGe_R4vtIQi0s6S-1" vertex="1">
          <mxGeometry x="284" y="205" width="27" height="27" as="geometry" />
        </mxCell>
        <mxCell id="XM5FjCuDmPm9ycIdQVT2-52" value="Secondary Battery&lt;div&gt;and Cable&lt;/div&gt;" style="text;html=1;align=center;verticalAlign=middle;resizable=0;points=[];autosize=1;strokeColor=none;fillColor=none;" parent="_QanThGe_R4vtIQi0s6S-1" vertex="1">
          <mxGeometry width="120" height="40" as="geometry" />
        </mxCell>
        <mxCell id="XM5FjCuDmPm9ycIdQVT2-56" value="BCC2" style="text;html=1;align=center;verticalAlign=middle;resizable=0;points=[];autosize=1;strokeColor=none;fillColor=none;fontSize=15;" parent="_QanThGe_R4vtIQi0s6S-1" vertex="1">
          <mxGeometry x="190" y="90" width="60" height="30" as="geometry" />
        </mxCell>
        <mxCell id="_QanThGe_R4vtIQi0s6S-4" value="" style="shape=waypoint;sketch=0;size=6;pointerEvents=1;points=[];fillColor=none;resizable=0;rotatable=0;perimeter=centerPerimeter;snapToPoint=1;" vertex="1" parent="_QanThGe_R4vtIQi0s6S-1">
          <mxGeometry x="334" y="-170" width="20" height="20" as="geometry" />
        </mxCell>
        <mxCell id="_QanThGe_R4vtIQi0s6S-5" value="" style="endArrow=none;html=1;rounded=0;exitX=0.9;exitY=0.4;exitDx=0;exitDy=0;exitPerimeter=0;entryDx=0;entryDy=0;strokeWidth=3;fillColor=#e51400;strokeColor=#FF0000;" edge="1" parent="_QanThGe_R4vtIQi0s6S-1" source="G7UtKUlCrea1HoJt_iq_-64" target="_QanThGe_R4vtIQi0s6S-4">
          <mxGeometry width="50" height="50" relative="1" as="geometry">
            <mxPoint x="335" y="886" as="sourcePoint" />
            <mxPoint x="363" y="650" as="targetPoint" />
            <Array as="points" />
          </mxGeometry>
        </mxCell>
        <mxCell id="_QanThGe_R4vtIQi0s6S-2" value="" style="group" vertex="1" connectable="0" parent="1">
          <mxGeometry x="19.999999999999996" y="880" width="197.86" height="175.5" as="geometry" />
        </mxCell>
        <mxCell id="XM5FjCuDmPm9ycIdQVT2-47" value="" style="group;rotation=90;" parent="_QanThGe_R4vtIQi0s6S-2" vertex="1" connectable="0">
          <mxGeometry x="23" y="22.5" width="72" height="27" as="geometry" />
        </mxCell>
        <mxCell id="XM5FjCuDmPm9ycIdQVT2-43" value="" style="shape=image;html=1;verticalAlign=top;verticalLabelPosition=bottom;labelBackgroundColor=#ffffff;imageAspect=0;aspect=fixed;image=https://cdn1.iconfinder.com/data/icons/bootstrap-vol-3/16/input-cursor-128.png;rotation=-270;" parent="XM5FjCuDmPm9ycIdQVT2-47" vertex="1">
          <mxGeometry x="23" y="-22" width="27" height="27" as="geometry" />
        </mxCell>
        <mxCell id="XM5FjCuDmPm9ycIdQVT2-44" value="" style="endArrow=none;html=1;rounded=0;strokeWidth=7;exitX=1;exitY=0.5;exitDx=0;exitDy=0;entryX=0;entryY=0.5;entryDx=0;entryDy=0;" parent="XM5FjCuDmPm9ycIdQVT2-47" source="XM5FjCuDmPm9ycIdQVT2-43" target="XM5FjCuDmPm9ycIdQVT2-45" edge="1">
          <mxGeometry width="50" height="50" relative="1" as="geometry">
            <mxPoint x="26" y="22" as="sourcePoint" />
            <mxPoint x="13" y="105" as="targetPoint" />
          </mxGeometry>
        </mxCell>
        <mxCell id="XM5FjCuDmPm9ycIdQVT2-45" value="" style="shape=image;html=1;verticalAlign=top;verticalLabelPosition=bottom;labelBackgroundColor=#ffffff;imageAspect=0;aspect=fixed;image=https://cdn1.iconfinder.com/data/icons/bootstrap-vol-3/16/input-cursor-128.png;rotation=-270;" parent="XM5FjCuDmPm9ycIdQVT2-47" vertex="1">
          <mxGeometry x="23" y="23" width="27" height="27" as="geometry" />
        </mxCell>
        <mxCell id="XM5FjCuDmPm9ycIdQVT2-36" value="DC battery&lt;div&gt;power / charge&lt;/div&gt;&lt;div&gt;jack (F)&lt;/div&gt;" style="text;html=1;align=left;verticalAlign=middle;resizable=0;points=[];autosize=1;strokeColor=none;fillColor=none;rotation=0;" parent="_QanThGe_R4vtIQi0s6S-2" vertex="1">
          <mxGeometry x="97.86000000000001" y="85.5" width="100" height="60" as="geometry" />
        </mxCell>
        <mxCell id="XM5FjCuDmPm9ycIdQVT2-38" value="" style="rounded=0;whiteSpace=wrap;html=1;fillColor=#0A0A0A;rotation=-90;" parent="_QanThGe_R4vtIQi0s6S-2" vertex="1">
          <mxGeometry x="21.000000000000004" y="97.5" width="80" height="62.5" as="geometry" />
        </mxCell>
        <mxCell id="XM5FjCuDmPm9ycIdQVT2-39" value="12V Battery" style="text;html=1;align=center;verticalAlign=middle;resizable=0;points=[];autosize=1;strokeColor=none;fillColor=none;rotation=-90;" parent="_QanThGe_R4vtIQi0s6S-2" vertex="1">
          <mxGeometry x="-29.999999999999996" y="115.5" width="90" height="30" as="geometry" />
        </mxCell>
        <mxCell id="XM5FjCuDmPm9ycIdQVT2-40" value="" style="shape=image;html=1;verticalAlign=top;verticalLabelPosition=bottom;labelBackgroundColor=#ffffff;imageAspect=0;aspect=fixed;image=https://cdn1.iconfinder.com/data/icons/bootstrap-vol-3/16/input-cursor-128.png;rotation=-90;imageBackground=default;" parent="_QanThGe_R4vtIQi0s6S-2" vertex="1">
          <mxGeometry x="46" y="75.5" width="27" height="27" as="geometry" />
        </mxCell>
        <mxCell id="XM5FjCuDmPm9ycIdQVT2-50" value="DC plug (M)" style="text;html=1;align=center;verticalAlign=middle;resizable=0;points=[];autosize=1;strokeColor=none;fillColor=none;" parent="_QanThGe_R4vtIQi0s6S-2" vertex="1">
          <mxGeometry x="64" y="43.5" width="90" height="30" as="geometry" />
        </mxCell>
        <mxCell id="XM5FjCuDmPm9ycIdQVT2-49" value="DC plug (M)" style="text;html=1;align=center;verticalAlign=middle;resizable=0;points=[];autosize=1;strokeColor=none;fillColor=none;" parent="_QanThGe_R4vtIQi0s6S-2" vertex="1">
          <mxGeometry x="64" width="90" height="30" as="geometry" />
        </mxCell>
        <mxCell id="_QanThGe_R4vtIQi0s6S-3" value="" style="shape=waypoint;sketch=0;size=6;pointerEvents=1;points=[];fillColor=none;resizable=0;rotatable=0;perimeter=centerPerimeter;snapToPoint=1;" vertex="1" parent="1">
          <mxGeometry x="130" y="610" width="20" height="20" as="geometry" />
        </mxCell>
        <mxCell id="G7UtKUlCrea1HoJt_iq_-69" value="" style="endArrow=none;html=1;rounded=0;exitX=0.2;exitY=1;exitDx=0;exitDy=0;exitPerimeter=0;strokeWidth=3;fillColor=#e51400;strokeColor=#0D0000;" parent="1" source="G7UtKUlCrea1HoJt_iq_-66" target="_QanThGe_R4vtIQi0s6S-3" edge="1">
          <mxGeometry width="50" height="50" relative="1" as="geometry">
            <mxPoint x="-130" y="620" as="sourcePoint" />
            <mxPoint x="140" y="640" as="targetPoint" />
          </mxGeometry>
        </mxCell>
        <mxCell id="G7UtKUlCrea1HoJt_iq_-70" value="" style="endArrow=none;html=1;rounded=0;exitDx=0;exitDy=0;exitPerimeter=0;entryX=0;entryY=0.79;entryDx=0;entryDy=0;strokeWidth=3;fillColor=#e51400;strokeColor=#FF0000;" parent="1" source="_QanThGe_R4vtIQi0s6S-4" target="G7UtKUlCrea1HoJt_iq_-4" edge="1">
          <mxGeometry width="50" height="50" relative="1" as="geometry">
            <mxPoint x="-130" y="620" as="sourcePoint" />
            <mxPoint x="368.9000000000001" y="884" as="targetPoint" />
            <Array as="points" />
          </mxGeometry>
        </mxCell>
        <mxCell id="_QanThGe_R4vtIQi0s6S-11" value="" style="group;rotation=-75;" vertex="1" connectable="0" parent="1">
          <mxGeometry x="208" y="510" width="130" height="70" as="geometry" />
        </mxCell>
        <mxCell id="_QanThGe_R4vtIQi0s6S-7" value="" style="ellipse;whiteSpace=wrap;html=1;rotation=-75;" vertex="1" parent="_QanThGe_R4vtIQi0s6S-11">
          <mxGeometry x="82" y="-23" width="30" height="30" as="geometry" />
        </mxCell>
        <mxCell id="_QanThGe_R4vtIQi0s6S-10" value="" style="endArrow=none;html=1;rounded=0;exitX=0.5;exitY=1;exitDx=0;exitDy=0;strokeWidth=3;fillColor=#e51400;strokeColor=#6666FF;entryX=1.05;entryY=0.75;entryDx=0;entryDy=0;entryPerimeter=0;" edge="1" parent="1" source="_QanThGe_R4vtIQi0s6S-7" target="_QanThGe_R4vtIQi0s6S-13">
          <mxGeometry width="50" height="50" relative="1" as="geometry">
            <mxPoint x="329" y="508" as="sourcePoint" />
            <mxPoint x="390" y="506" as="targetPoint" />
          </mxGeometry>
        </mxCell>
        <mxCell id="_QanThGe_R4vtIQi0s6S-9" value="" style="endArrow=none;html=1;rounded=0;exitX=0;exitY=0.5;exitDx=0;exitDy=0;strokeWidth=3;fillColor=#e51400;strokeColor=#FF0000;entryX=0.9;entryY=0.2;entryDx=0;entryDy=0;entryPerimeter=0;" edge="1" parent="1" source="_QanThGe_R4vtIQi0s6S-7" target="_QanThGe_R4vtIQi0s6S-4">
          <mxGeometry width="50" height="50" relative="1" as="geometry">
            <mxPoint x="64" y="444" as="sourcePoint" />
            <mxPoint x="222" y="599" as="targetPoint" />
            <Array as="points">
              <mxPoint x="280" y="560" />
              <mxPoint x="280" y="680" />
            </Array>
          </mxGeometry>
        </mxCell>
        <mxCell id="_QanThGe_R4vtIQi0s6S-8" value="" style="endArrow=none;html=1;rounded=0;exitX=0;exitY=0;exitDx=0;exitDy=0;strokeWidth=3;entryX=0.65;entryY=0.3;entryDx=0;entryDy=0;entryPerimeter=0;" edge="1" parent="1" source="_QanThGe_R4vtIQi0s6S-7" target="_QanThGe_R4vtIQi0s6S-3">
          <mxGeometry width="50" height="50" relative="1" as="geometry">
            <mxPoint x="31" y="346" as="sourcePoint" />
            <mxPoint x="242" y="604" as="targetPoint" />
            <Array as="points" />
          </mxGeometry>
        </mxCell>
        <mxCell id="_QanThGe_R4vtIQi0s6S-13" value="" style="shape=waypoint;sketch=0;size=6;pointerEvents=1;points=[];fillColor=none;resizable=0;rotatable=0;perimeter=centerPerimeter;snapToPoint=1;" vertex="1" parent="1">
          <mxGeometry x="350" y="497" width="20" height="20" as="geometry" />
        </mxCell>
        <mxCell id="_QanThGe_R4vtIQi0s6S-14" value="" style="endArrow=none;html=1;rounded=0;exitX=1;exitY=0.61;exitDx=0;exitDy=0;entryX=0.5;entryY=0.5;entryDx=0;entryDy=0;strokeWidth=3;fillColor=#e51400;strokeColor=#FF0000;entryPerimeter=0;" edge="1" parent="1" source="G7UtKUlCrea1HoJt_iq_-4" target="_QanThGe_R4vtIQi0s6S-13">
          <mxGeometry width="50" height="50" relative="1" as="geometry">
            <mxPoint x="370" y="347" as="sourcePoint" />
            <mxPoint x="480" y="490" as="targetPoint" />
            <Array as="points" />
          </mxGeometry>
        </mxCell>
        <mxCell id="_QanThGe_R4vtIQi0s6S-15" value="" style="endArrow=none;html=1;rounded=0;" edge="1" parent="1">
          <mxGeometry width="50" height="50" relative="1" as="geometry">
            <mxPoint x="290" y="480" as="sourcePoint" />
            <mxPoint x="320" y="520" as="targetPoint" />
          </mxGeometry>
        </mxCell>
      </root>
    </mxGraphModel>
  </diagram>
</mxfile>
